<?xml version="1.0" encoding="UTF-8" standalone="no"?><svg xmlns="http://www.w3.org/2000/svg" xmlns:xlink="http://www.w3.org/1999/xlink" contentStyleType="text/css" height="831px" preserveAspectRatio="none" style="width:528px;height:831px;background:#FFFFFF;" version="1.1" viewBox="0 0 528 831" width="528px" zoomAndPan="magnify"><defs/><g><ellipse cx="260.5" cy="20" fill="#222222" rx="10" ry="10" style="stroke:#222222;stroke-width:1.0;"/><rect fill="#F1F1F1" height="35.0938" rx="12.5" ry="12.5" style="stroke:#181818;stroke-width:0.5;" width="359" x="81" y="50"/><text fill="#000000" font-family="sans-serif" font-size="12" lengthAdjust="spacing" textLength="339" x="91" y="72.457">Caricamento circolare da parte dell'Amministratore di sistema</text><rect fill="#F1F1F1" height="35.0938" rx="12.5" ry="12.5" style="stroke:#181818;stroke-width:0.5;" width="255" x="133" y="105.0938"/><text fill="#000000" font-family="sans-serif" font-size="12" lengthAdjust="spacing" textLength="235" x="143" y="127.5508">Acquisizione circolare da parte del sistema</text><rect fill="#F1F1F1" height="35.0938" rx="12.5" ry="12.5" style="stroke:#181818;stroke-width:0.5;" width="218" x="151.5" y="160.1875"/><text fill="#000000" font-family="sans-serif" font-size="12" lengthAdjust="spacing" textLength="198" x="161.5" y="182.6445">Analisi contenuto circolare tramite IA</text><polygon fill="#F1F1F1" points="172,215.2813,349,215.2813,361,227.2813,349,239.2813,172,239.2813,160,227.2813,172,215.2813" style="stroke:#181818;stroke-width:0.5;"/><text fill="#000000" font-family="sans-serif" font-size="11" lengthAdjust="spacing" textLength="177" x="172" y="231.7822">Contenuto analizzato correttamente?</text><text fill="#000000" font-family="sans-serif" font-size="11" lengthAdjust="spacing" textLength="9" x="151" y="224.8643">Sì</text><text fill="#000000" font-family="sans-serif" font-size="11" lengthAdjust="spacing" textLength="13" x="361" y="224.8643">No</text><rect fill="#F1F1F1" height="95.4688" rx="12.5" ry="12.5" style="stroke:#181818;stroke-width:0.5;" width="208" x="29.5" y="249.2813"/><text fill="#000000" font-family="sans-serif" font-size="12" lengthAdjust="spacing" textLength="188" x="39.5" y="271.7383">Assegnazione etichette basate su:</text><ellipse cx="45" cy="281.9688" fill="#000000" rx="2.5" ry="2.5" style="stroke:#000000;stroke-width:0.0;"/><text fill="#000000" font-family="sans-serif" font-size="12" lengthAdjust="spacing" textLength="27" x="50.5" y="286.832">Lotto</text><ellipse cx="45" cy="297.0625" fill="#000000" rx="2.5" ry="2.5" style="stroke:#000000;stroke-width:0.0;"/><text fill="#000000" font-family="sans-serif" font-size="12" lengthAdjust="spacing" textLength="44" x="50.5" y="301.9258">Indirizzo</text><ellipse cx="45" cy="312.1563" fill="#000000" rx="2.5" ry="2.5" style="stroke:#000000;stroke-width:0.0;"/><text fill="#000000" font-family="sans-serif" font-size="12" lengthAdjust="spacing" textLength="28" x="50.5" y="317.0195">Anno</text><ellipse cx="45" cy="327.25" fill="#000000" rx="2.5" ry="2.5" style="stroke:#000000;stroke-width:0.0;"/><text fill="#000000" font-family="sans-serif" font-size="12" lengthAdjust="spacing" textLength="60" x="50.5" y="332.1133">Destinatari</text><rect fill="#F1F1F1" height="35.0938" rx="12.5" ry="12.5" style="stroke:#181818;stroke-width:0.5;" width="260" x="257.5" y="249.2813"/><text fill="#000000" font-family="sans-serif" font-size="12" lengthAdjust="spacing" textLength="240" x="267.5" y="271.7383">Notifica errore all'Amministratore di sistema</text><ellipse cx="387.5" cy="330.375" fill="none" rx="11" ry="11" style="stroke:#222222;stroke-width:1.0;"/><ellipse cx="387.5" cy="330.375" fill="#222222" rx="6" ry="6" style="stroke:#111111;stroke-width:1.0;"/><rect fill="#F1F1F1" height="35.0938" rx="12.5" ry="12.5" style="stroke:#181818;stroke-width:0.5;" width="283" x="119" y="364.75"/><text fill="#000000" font-family="sans-serif" font-size="12" lengthAdjust="spacing" textLength="263" x="129" y="387.207">Salvataggio circolare categorizzata nel database</text><rect fill="#F1F1F1" height="35.0938" rx="12.5" ry="12.5" style="stroke:#181818;stroke-width:0.5;" width="287" x="117" y="419.8438"/><text fill="#000000" font-family="sans-serif" font-size="12" lengthAdjust="spacing" textLength="267" x="127" y="442.3008">Rendere circolare disponibile per visualizzazione</text><rect fill="none" height="313.9844" style="stroke:#000000;stroke-width:1.5;" width="472" x="11" y="464.9375"/><path d="M176,464.9375 L176,475.5469 L166,485.5469 L11,485.5469 " fill="none" style="stroke:#000000;stroke-width:1.5;"/><text fill="#000000" font-family="sans-serif" font-size="14" lengthAdjust="spacing" textLength="155" x="14" y="480.4707">Visualizzazione Circolare</text><rect fill="#F1F1F1" height="35.0938" rx="12.5" ry="12.5" style="stroke:#181818;stroke-width:0.5;" width="160" x="180.5" y="502.5469"/><text fill="#000000" font-family="sans-serif" font-size="12" lengthAdjust="spacing" textLength="140" x="190.5" y="525.0039">Utente accede al sistema</text><polygon fill="#F1F1F1" points="201,557.6406,320,557.6406,332,569.6406,320,581.6406,201,581.6406,189,569.6406,201,557.6406" style="stroke:#181818;stroke-width:0.5;"/><text fill="#000000" font-family="sans-serif" font-size="11" lengthAdjust="spacing" textLength="119" x="201" y="574.1416">Utente ricerca circolare?</text><text fill="#000000" font-family="sans-serif" font-size="11" lengthAdjust="spacing" textLength="9" x="180" y="567.2236">Sì</text><text fill="#000000" font-family="sans-serif" font-size="11" lengthAdjust="spacing" textLength="13" x="332" y="567.2236">No</text><rect fill="#F1F1F1" height="35.0938" rx="12.5" ry="12.5" style="stroke:#181818;stroke-width:0.5;" width="196" x="47.5" y="591.6406"/><text fill="#000000" font-family="sans-serif" font-size="12" lengthAdjust="spacing" textLength="176" x="57.5" y="614.0977">Utente inserisce criteri di ricerca</text><rect fill="#F1F1F1" height="35.0938" rx="12.5" ry="12.5" style="stroke:#181818;stroke-width:0.5;" width="245" x="23" y="646.7344"/><text fill="#000000" font-family="sans-serif" font-size="12" lengthAdjust="spacing" textLength="225" x="33" y="669.1914">Sistema filtra circolari basate su etichette</text><rect fill="#F1F1F1" height="35.0938" rx="12.5" ry="12.5" style="stroke:#181818;stroke-width:0.5;" width="175" x="288" y="591.6406"/><text fill="#000000" font-family="sans-serif" font-size="12" lengthAdjust="spacing" textLength="155" x="298" y="614.0977">Visualizzazione lista circolari</text><polygon fill="#F1F1F1" points="260.5,687.8281,272.5,699.8281,260.5,711.8281,248.5,699.8281,260.5,687.8281" style="stroke:#181818;stroke-width:0.5;"/><rect fill="#F1F1F1" height="35.0938" rx="12.5" ry="12.5" style="stroke:#181818;stroke-width:0.5;" width="261" x="130" y="731.8281"/><text fill="#000000" font-family="sans-serif" font-size="12" lengthAdjust="spacing" textLength="241" x="140" y="754.2852">Selezione e visualizzazione dettagli circolare</text><ellipse cx="260.5" cy="809.9219" fill="none" rx="11" ry="11" style="stroke:#222222;stroke-width:1.0;"/><ellipse cx="260.5" cy="809.9219" fill="#222222" rx="6" ry="6" style="stroke:#111111;stroke-width:1.0;"/><line style="stroke:#181818;stroke-width:1.0;" x1="260.5" x2="260.5" y1="30" y2="50"/><polygon fill="#181818" points="256.5,40,260.5,50,264.5,40,260.5,44" style="stroke:#181818;stroke-width:1.0;"/><line style="stroke:#181818;stroke-width:1.0;" x1="260.5" x2="260.5" y1="85.0938" y2="105.0938"/><polygon fill="#181818" points="256.5,95.0938,260.5,105.0938,264.5,95.0938,260.5,99.0938" style="stroke:#181818;stroke-width:1.0;"/><line style="stroke:#181818;stroke-width:1.0;" x1="260.5" x2="260.5" y1="140.1875" y2="160.1875"/><polygon fill="#181818" points="256.5,150.1875,260.5,160.1875,264.5,150.1875,260.5,154.1875" style="stroke:#181818;stroke-width:1.0;"/><line style="stroke:#181818;stroke-width:1.0;" x1="387.5" x2="387.5" y1="284.375" y2="319.375"/><polygon fill="#181818" points="383.5,309.375,387.5,319.375,391.5,309.375,387.5,313.375" style="stroke:#181818;stroke-width:1.0;"/><line style="stroke:#181818;stroke-width:1.0;" x1="160" x2="133.5" y1="227.2813" y2="227.2813"/><line style="stroke:#181818;stroke-width:1.0;" x1="133.5" x2="133.5" y1="227.2813" y2="249.2813"/><polygon fill="#181818" points="129.5,239.2813,133.5,249.2813,137.5,239.2813,133.5,243.2813" style="stroke:#181818;stroke-width:1.0;"/><line style="stroke:#181818;stroke-width:1.0;" x1="361" x2="387.5" y1="227.2813" y2="227.2813"/><line style="stroke:#181818;stroke-width:1.0;" x1="387.5" x2="387.5" y1="227.2813" y2="249.2813"/><polygon fill="#181818" points="383.5,239.2813,387.5,249.2813,391.5,239.2813,387.5,243.2813" style="stroke:#181818;stroke-width:1.0;"/><line style="stroke:#181818;stroke-width:1.0;" x1="133.5" x2="133.5" y1="344.75" y2="349.75"/><line style="stroke:#181818;stroke-width:1.0;" x1="133.5" x2="260.5" y1="349.75" y2="349.75"/><line style="stroke:#181818;stroke-width:1.0;" x1="260.5" x2="260.5" y1="349.75" y2="364.75"/><polygon fill="#181818" points="256.5,354.75,260.5,364.75,264.5,354.75,260.5,358.75" style="stroke:#181818;stroke-width:1.0;"/><line style="stroke:#181818;stroke-width:1.0;" x1="260.5" x2="260.5" y1="195.2813" y2="215.2813"/><polygon fill="#181818" points="256.5,205.2813,260.5,215.2813,264.5,205.2813,260.5,209.2813" style="stroke:#181818;stroke-width:1.0;"/><line style="stroke:#181818;stroke-width:1.0;" x1="260.5" x2="260.5" y1="399.8438" y2="419.8438"/><polygon fill="#181818" points="256.5,409.8438,260.5,419.8438,264.5,409.8438,260.5,413.8438" style="stroke:#181818;stroke-width:1.0;"/><line style="stroke:#181818;stroke-width:1.0;" x1="145.5" x2="145.5" y1="626.7344" y2="646.7344"/><polygon fill="#181818" points="141.5,636.7344,145.5,646.7344,149.5,636.7344,145.5,640.7344" style="stroke:#181818;stroke-width:1.0;"/><line style="stroke:#181818;stroke-width:1.0;" x1="189" x2="145.5" y1="569.6406" y2="569.6406"/><line style="stroke:#181818;stroke-width:1.0;" x1="145.5" x2="145.5" y1="569.6406" y2="591.6406"/><polygon fill="#181818" points="141.5,581.6406,145.5,591.6406,149.5,581.6406,145.5,585.6406" style="stroke:#181818;stroke-width:1.0;"/><line style="stroke:#181818;stroke-width:1.0;" x1="332" x2="375.5" y1="569.6406" y2="569.6406"/><line style="stroke:#181818;stroke-width:1.0;" x1="375.5" x2="375.5" y1="569.6406" y2="591.6406"/><polygon fill="#181818" points="371.5,581.6406,375.5,591.6406,379.5,581.6406,375.5,585.6406" style="stroke:#181818;stroke-width:1.0;"/><line style="stroke:#181818;stroke-width:1.0;" x1="145.5" x2="145.5" y1="681.8281" y2="699.8281"/><line style="stroke:#181818;stroke-width:1.0;" x1="145.5" x2="248.5" y1="699.8281" y2="699.8281"/><polygon fill="#181818" points="238.5,695.8281,248.5,699.8281,238.5,703.8281,242.5,699.8281" style="stroke:#181818;stroke-width:1.0;"/><line style="stroke:#181818;stroke-width:1.0;" x1="375.5" x2="375.5" y1="626.7344" y2="699.8281"/><line style="stroke:#181818;stroke-width:1.0;" x1="375.5" x2="272.5" y1="699.8281" y2="699.8281"/><polygon fill="#181818" points="282.5,695.8281,272.5,699.8281,282.5,703.8281,278.5,699.8281" style="stroke:#181818;stroke-width:1.0;"/><line style="stroke:#181818;stroke-width:1.0;" x1="260.5" x2="260.5" y1="537.6406" y2="557.6406"/><polygon fill="#181818" points="256.5,547.6406,260.5,557.6406,264.5,547.6406,260.5,551.6406" style="stroke:#181818;stroke-width:1.0;"/><line style="stroke:#181818;stroke-width:1.0;" x1="260.5" x2="260.5" y1="711.8281" y2="731.8281"/><polygon fill="#181818" points="256.5,721.8281,260.5,731.8281,264.5,721.8281,260.5,725.8281" style="stroke:#181818;stroke-width:1.0;"/><line style="stroke:#181818;stroke-width:1.0;" x1="260.5" x2="260.5" y1="454.9375" y2="502.5469"/><polygon fill="#181818" points="256.5,492.5469,260.5,502.5469,264.5,492.5469,260.5,496.5469" style="stroke:#181818;stroke-width:1.0;"/><line style="stroke:#181818;stroke-width:1.0;" x1="260.5" x2="260.5" y1="766.9219" y2="798.9219"/><polygon fill="#181818" points="256.5,788.9219,260.5,798.9219,264.5,788.9219,260.5,792.9219" style="stroke:#181818;stroke-width:1.0;"/><!--MD5=[d3fb94a5d8197c18b33a7560d13e0659]
@startuml ACTIVITY_AI
start
:Caricamento circolare da parte dell'Amministratore di sistema;
:Acquisizione circolare da parte del sistema;
:Analisi contenuto circolare tramite IA;
if (Contenuto analizzato correttamente?) then (Sì)
  :Assegnazione etichette basate su:
  * Lotto
  * Indirizzo
  * Anno
  * Destinatari;
else (No)
  :Notifica errore all'Amministratore di sistema;
  stop
endif

:Salvataggio circolare categorizzata nel database;
:Rendere circolare disponibile per visualizzazione;
partition "Visualizzazione Circolare" {
  :Utente accede al sistema;
  if (Utente ricerca circolare?) then (Sì)
    :Utente inserisce criteri di ricerca;
    :Sistema filtra circolari basate su etichette;
  else (No)
    :Visualizzazione lista circolari;
  endif
  :Selezione e visualizzazione dettagli circolare;
}
stop
@enduml

PlantUML version 1.2022.7(Mon Aug 22 19:01:30 CEST 2022)
(GPL source distribution)
Java Runtime: Java(TM) SE Runtime Environment
JVM: Java HotSpot(TM) 64-Bit Server VM
Default Encoding: UTF-8
Language: en
Country: GB
--></g></svg>