<?xml version="1.0" encoding="UTF-8" standalone="no"?><svg xmlns="http://www.w3.org/2000/svg" xmlns:xlink="http://www.w3.org/1999/xlink" contentStyleType="text/css" height="925px" preserveAspectRatio="none" style="width:446px;height:925px;background:#FFFFFF;" version="1.1" viewBox="0 0 446 925" width="446px" zoomAndPan="magnify"><defs/><g><ellipse cx="220.5" cy="20" fill="#222222" rx="10" ry="10" style="stroke:#222222;stroke-width:1.0;"/><rect fill="#F1F1F1" height="35.0938" rx="12.5" ry="12.5" style="stroke:#181818;stroke-width:0.5;" width="170" x="135.5" y="50"/><text fill="#000000" font-family="sans-serif" font-size="12" lengthAdjust="spacing" textLength="150" x="145.5" y="72.457">Utenti accedono al sistema</text><polygon fill="#F1F1F1" points="185.5,105.0938,255.5,105.0938,267.5,117.0938,255.5,129.0938,185.5,129.0938,173.5,117.0938,185.5,105.0938" style="stroke:#181818;stroke-width:0.5;"/><text fill="#000000" font-family="sans-serif" font-size="11" lengthAdjust="spacing" textLength="70" x="185.5" y="121.5947">Tipo di utente?</text><text fill="#000000" font-family="sans-serif" font-size="11" lengthAdjust="spacing" textLength="43" x="130.5" y="114.6768">Studente</text><text fill="#000000" font-family="sans-serif" font-size="11" lengthAdjust="spacing" textLength="54" x="267.5" y="114.6768">Professore</text><rect fill="#F1F1F1" height="35.0938" rx="12.5" ry="12.5" style="stroke:#181818;stroke-width:0.5;" width="194" x="12.5" y="139.0938"/><text fill="#000000" font-family="sans-serif" font-size="12" lengthAdjust="spacing" textLength="174" x="22.5" y="161.5508">Accesso diretto alla modulistica</text><rect fill="#F1F1F1" height="35.0938" rx="12.5" ry="12.5" style="stroke:#181818;stroke-width:0.5;" width="197" x="11" y="194.1875"/><text fill="#000000" font-family="sans-serif" font-size="12" lengthAdjust="spacing" textLength="177" x="21" y="216.6445">Visualizzazione orario scolastico</text><rect fill="#F1F1F1" height="35.0938" rx="12.5" ry="12.5" style="stroke:#181818;stroke-width:0.5;" width="99" x="282" y="139.0938"/><text fill="#000000" font-family="sans-serif" font-size="12" lengthAdjust="spacing" textLength="79" x="292" y="161.5508">Autenticazione</text><rect fill="#F1F1F1" height="35.0938" rx="12.5" ry="12.5" style="stroke:#181818;stroke-width:0.5;" width="207" x="228" y="194.1875"/><text fill="#000000" font-family="sans-serif" font-size="12" lengthAdjust="spacing" textLength="187" x="238" y="216.6445">Accesso alla modulistica riservata</text><rect fill="#F1F1F1" height="35.0938" rx="12.5" ry="12.5" style="stroke:#181818;stroke-width:0.5;" width="197" x="233" y="249.2813"/><text fill="#000000" font-family="sans-serif" font-size="12" lengthAdjust="spacing" textLength="177" x="243" y="271.7383">Visualizzazione orario scolastico</text><polygon fill="#F1F1F1" points="220.5,290.375,232.5,302.375,220.5,314.375,208.5,302.375,220.5,290.375" style="stroke:#181818;stroke-width:0.5;"/><rect fill="#F1F1F1" height="35.0938" rx="12.5" ry="12.5" style="stroke:#181818;stroke-width:0.5;" width="190" x="125.5" y="334.375"/><text fill="#000000" font-family="sans-serif" font-size="12" lengthAdjust="spacing" textLength="170" x="135.5" y="356.832">Selezione categoria desiderata</text><rect fill="none" height="287.8086" style="stroke:#000000;stroke-width:1.5;" width="212" x="115" y="379.4688"/><path d="M195,379.4688 L195,390.0781 L185,400.0781 L115,400.0781 " fill="none" style="stroke:#000000;stroke-width:1.5;"/><text fill="#000000" font-family="sans-serif" font-size="14" lengthAdjust="spacing" textLength="70" x="118" y="395.002">Modulistica</text><rect fill="#F1F1F1" height="35.0938" rx="12.5" ry="12.5" style="stroke:#181818;stroke-width:0.5;" width="164" x="138.5" y="417.0781"/><text fill="#000000" font-family="sans-serif" font-size="12" lengthAdjust="spacing" textLength="144" x="148.5" y="439.5352">Ricerca moduli/documenti</text><rect fill="#F1F1F1" height="35.0938" rx="12.5" ry="12.5" style="stroke:#181818;stroke-width:0.5;" width="149" x="146" y="521.0898"/><text fill="#000000" font-family="sans-serif" font-size="12" lengthAdjust="spacing" textLength="129" x="156" y="543.5469">Utilizzo ricerca avanzata</text><polygon fill="#F1F1F1" points="160.5,472.1719,280.5,472.1719,292.5,484.1719,280.5,496.1719,160.5,496.1719,148.5,484.1719,160.5,472.1719" style="stroke:#181818;stroke-width:0.5;"/><text fill="#000000" font-family="sans-serif" font-size="11" lengthAdjust="spacing" textLength="9" x="224.5" y="507.5908">Sì</text><text fill="#000000" font-family="sans-serif" font-size="11" lengthAdjust="spacing" textLength="120" x="160.5" y="488.6729">Trovare moduli specifici?</text><text fill="#000000" font-family="sans-serif" font-size="11" lengthAdjust="spacing" textLength="13" x="292.5" y="481.7549">No</text><polygon fill="#F1F1F1" points="220.5,576.1836,232.5,588.1836,220.5,600.1836,208.5,588.1836,220.5,576.1836" style="stroke:#181818;stroke-width:0.5;"/><rect fill="#F1F1F1" height="35.0938" rx="12.5" ry="12.5" style="stroke:#181818;stroke-width:0.5;" width="191" x="125" y="620.1836"/><text fill="#000000" font-family="sans-serif" font-size="12" lengthAdjust="spacing" textLength="171" x="135" y="642.6406">Visualizzazione dettagli modulo</text><rect fill="none" height="194.8906" style="stroke:#000000;stroke-width:1.5;" width="245" x="98" y="677.2773"/><path d="M216,677.2773 L216,687.8867 L206,697.8867 L98,697.8867 " fill="none" style="stroke:#000000;stroke-width:1.5;"/><text fill="#000000" font-family="sans-serif" font-size="14" lengthAdjust="spacing" textLength="108" x="101" y="692.8105">Orario Scolastico</text><rect fill="#F1F1F1" height="35.0938" rx="12.5" ry="12.5" style="stroke:#181818;stroke-width:0.5;" width="165" x="138" y="714.8867"/><text fill="#000000" font-family="sans-serif" font-size="12" lengthAdjust="spacing" textLength="145" x="148" y="737.3438">Ricerca orario per docente</text><rect fill="#F1F1F1" height="35.0938" rx="12.5" ry="12.5" style="stroke:#181818;stroke-width:0.5;" width="225" x="108" y="769.9805"/><text fill="#000000" font-family="sans-serif" font-size="12" lengthAdjust="spacing" textLength="205" x="118" y="792.4375">Filtraggio risultati per nome/cognome</text><rect fill="#F1F1F1" height="35.0938" rx="12.5" ry="12.5" style="stroke:#181818;stroke-width:0.5;" width="218" x="111.5" y="825.0742"/><text fill="#000000" font-family="sans-serif" font-size="12" lengthAdjust="spacing" textLength="198" x="121.5" y="847.5313">Visualizzazione dettagli aula e orario</text><ellipse cx="220.5" cy="903.168" fill="none" rx="11" ry="11" style="stroke:#222222;stroke-width:1.0;"/><ellipse cx="220.5" cy="903.168" fill="#222222" rx="6" ry="6" style="stroke:#111111;stroke-width:1.0;"/><line style="stroke:#181818;stroke-width:1.0;" x1="220.5" x2="220.5" y1="30" y2="50"/><polygon fill="#181818" points="216.5,40,220.5,50,224.5,40,220.5,44" style="stroke:#181818;stroke-width:1.0;"/><line style="stroke:#181818;stroke-width:1.0;" x1="109.5" x2="109.5" y1="174.1875" y2="194.1875"/><polygon fill="#181818" points="105.5,184.1875,109.5,194.1875,113.5,184.1875,109.5,188.1875" style="stroke:#181818;stroke-width:1.0;"/><line style="stroke:#181818;stroke-width:1.0;" x1="331.5" x2="331.5" y1="174.1875" y2="194.1875"/><polygon fill="#181818" points="327.5,184.1875,331.5,194.1875,335.5,184.1875,331.5,188.1875" style="stroke:#181818;stroke-width:1.0;"/><line style="stroke:#181818;stroke-width:1.0;" x1="331.5" x2="331.5" y1="229.2813" y2="249.2813"/><polygon fill="#181818" points="327.5,239.2813,331.5,249.2813,335.5,239.2813,331.5,243.2813" style="stroke:#181818;stroke-width:1.0;"/><line style="stroke:#181818;stroke-width:1.0;" x1="173.5" x2="109.5" y1="117.0938" y2="117.0938"/><line style="stroke:#181818;stroke-width:1.0;" x1="109.5" x2="109.5" y1="117.0938" y2="139.0938"/><polygon fill="#181818" points="105.5,129.0938,109.5,139.0938,113.5,129.0938,109.5,133.0938" style="stroke:#181818;stroke-width:1.0;"/><line style="stroke:#181818;stroke-width:1.0;" x1="267.5" x2="331.5" y1="117.0938" y2="117.0938"/><line style="stroke:#181818;stroke-width:1.0;" x1="331.5" x2="331.5" y1="117.0938" y2="139.0938"/><polygon fill="#181818" points="327.5,129.0938,331.5,139.0938,335.5,129.0938,331.5,133.0938" style="stroke:#181818;stroke-width:1.0;"/><line style="stroke:#181818;stroke-width:1.0;" x1="109.5" x2="109.5" y1="229.2813" y2="302.375"/><line style="stroke:#181818;stroke-width:1.0;" x1="109.5" x2="208.5" y1="302.375" y2="302.375"/><polygon fill="#181818" points="198.5,298.375,208.5,302.375,198.5,306.375,202.5,302.375" style="stroke:#181818;stroke-width:1.0;"/><line style="stroke:#181818;stroke-width:1.0;" x1="331.5" x2="331.5" y1="284.375" y2="302.375"/><line style="stroke:#181818;stroke-width:1.0;" x1="331.5" x2="232.5" y1="302.375" y2="302.375"/><polygon fill="#181818" points="242.5,298.375,232.5,302.375,242.5,306.375,238.5,302.375" style="stroke:#181818;stroke-width:1.0;"/><line style="stroke:#181818;stroke-width:1.0;" x1="220.5" x2="220.5" y1="85.0938" y2="105.0938"/><polygon fill="#181818" points="216.5,95.0938,220.5,105.0938,224.5,95.0938,220.5,99.0938" style="stroke:#181818;stroke-width:1.0;"/><line style="stroke:#181818;stroke-width:1.0;" x1="220.5" x2="220.5" y1="314.375" y2="334.375"/><polygon fill="#181818" points="216.5,324.375,220.5,334.375,224.5,324.375,220.5,328.375" style="stroke:#181818;stroke-width:1.0;"/><line style="stroke:#181818;stroke-width:1.0;" x1="220.5" x2="220.5" y1="496.1719" y2="521.0898"/><polygon fill="#181818" points="216.5,511.0898,220.5,521.0898,224.5,511.0898,220.5,515.0898" style="stroke:#181818;stroke-width:1.0;"/><line style="stroke:#181818;stroke-width:1.0;" x1="292.5" x2="305" y1="484.1719" y2="484.1719"/><polygon fill="#181818" points="301,528.6367,305,538.6367,309,528.6367,305,532.6367" style="stroke:#181818;stroke-width:1.0;"/><line style="stroke:#181818;stroke-width:1.0;" x1="305" x2="305" y1="484.1719" y2="588.1836"/><line style="stroke:#181818;stroke-width:1.0;" x1="305" x2="232.5" y1="588.1836" y2="588.1836"/><polygon fill="#181818" points="242.5,584.1836,232.5,588.1836,242.5,592.1836,238.5,588.1836" style="stroke:#181818;stroke-width:1.0;"/><line style="stroke:#181818;stroke-width:1.0;" x1="220.5" x2="220.5" y1="556.1836" y2="576.1836"/><polygon fill="#181818" points="216.5,566.1836,220.5,576.1836,224.5,566.1836,220.5,570.1836" style="stroke:#181818;stroke-width:1.0;"/><line style="stroke:#181818;stroke-width:1.0;" x1="220.5" x2="220.5" y1="452.1719" y2="472.1719"/><polygon fill="#181818" points="216.5,462.1719,220.5,472.1719,224.5,462.1719,220.5,466.1719" style="stroke:#181818;stroke-width:1.0;"/><line style="stroke:#181818;stroke-width:1.0;" x1="220.5" x2="220.5" y1="600.1836" y2="620.1836"/><polygon fill="#181818" points="216.5,610.1836,220.5,620.1836,224.5,610.1836,220.5,614.1836" style="stroke:#181818;stroke-width:1.0;"/><line style="stroke:#181818;stroke-width:1.0;" x1="220.5" x2="220.5" y1="369.4688" y2="417.0781"/><polygon fill="#181818" points="216.5,407.0781,220.5,417.0781,224.5,407.0781,220.5,411.0781" style="stroke:#181818;stroke-width:1.0;"/><line style="stroke:#181818;stroke-width:1.0;" x1="220.5" x2="220.5" y1="749.9805" y2="769.9805"/><polygon fill="#181818" points="216.5,759.9805,220.5,769.9805,224.5,759.9805,220.5,763.9805" style="stroke:#181818;stroke-width:1.0;"/><line style="stroke:#181818;stroke-width:1.0;" x1="220.5" x2="220.5" y1="805.0742" y2="825.0742"/><polygon fill="#181818" points="216.5,815.0742,220.5,825.0742,224.5,815.0742,220.5,819.0742" style="stroke:#181818;stroke-width:1.0;"/><line style="stroke:#181818;stroke-width:1.0;" x1="220.5" x2="220.5" y1="655.2773" y2="714.8867"/><polygon fill="#181818" points="216.5,704.8867,220.5,714.8867,224.5,704.8867,220.5,708.8867" style="stroke:#181818;stroke-width:1.0;"/><line style="stroke:#181818;stroke-width:1.0;" x1="220.5" x2="220.5" y1="860.168" y2="892.168"/><polygon fill="#181818" points="216.5,882.168,220.5,892.168,224.5,882.168,220.5,886.168" style="stroke:#181818;stroke-width:1.0;"/><!--MD5=[85a767d895b9cdbfb3950e421aed269e]
@startuml ACTIVITY
start
:Utenti accedono al sistema;

if (Tipo di utente?) then (Studente)
  :Accesso diretto alla modulistica;
  :Visualizzazione orario scolastico;
else (Professore)
  :Autenticazione;
  :Accesso alla modulistica riservata;
  :Visualizzazione orario scolastico;
endif

:Selezione categoria desiderata;
partition Modulistica {
  :Ricerca moduli/documenti;
  if (Trovare moduli specifici?) then (Sì)
    :Utilizzo ricerca avanzata;
  else (No)
  endif
  :Visualizzazione dettagli modulo;
}

partition "Orario Scolastico" {
  :Ricerca orario per docente;
  :Filtraggio risultati per nome/cognome;
  :Visualizzazione dettagli aula e orario;
}


stop
@enduml

PlantUML version 1.2022.7(Mon Aug 22 19:01:30 CEST 2022)
(GPL source distribution)
Java Runtime: Java(TM) SE Runtime Environment
JVM: Java HotSpot(TM) 64-Bit Server VM
Default Encoding: UTF-8
Language: en
Country: GB
--></g></svg>