<?xml version="1.0" encoding="UTF-8" standalone="no"?><svg xmlns="http://www.w3.org/2000/svg" xmlns:xlink="http://www.w3.org/1999/xlink" contentStyleType="text/css" height="702px" preserveAspectRatio="none" style="width:570px;height:702px;background:#FFFFFF;" version="1.1" viewBox="0 0 570 702" width="570px" zoomAndPan="magnify"><defs/><g><rect fill="#FFFFFF" height="36.3516" style="stroke:#181818;stroke-width:1.0;" width="10" x="344" y="381.4219"/><rect fill="#FFFFFF" height="30.3516" style="stroke:#181818;stroke-width:1.0;" width="10" x="344" y="535.8281"/><line style="stroke:#181818;stroke-width:0.5;stroke-dasharray:5.0,5.0;" x1="26" x2="26" y1="82.6094" y2="620.5313"/><line style="stroke:#181818;stroke-width:0.5;stroke-dasharray:5.0,5.0;" x1="208.5" x2="208.5" y1="82.6094" y2="620.5313"/><line style="stroke:#181818;stroke-width:0.5;stroke-dasharray:5.0,5.0;" x1="348.5" x2="348.5" y1="82.6094" y2="620.5313"/><text fill="#000000" font-family="sans-serif" font-size="14" lengthAdjust="spacing" textLength="36" x="5" y="79.5332">Utenti</text><ellipse cx="26" cy="13.5" fill="#E2E2F0" rx="8" ry="8" style="stroke:#181818;stroke-width:0.5;"/><path d="M26,21.5 L26,48.5 M13,29.5 L39,29.5 M26,48.5 L13,63.5 M26,48.5 L39,63.5 " fill="none" style="stroke:#181818;stroke-width:0.5;"/><text fill="#000000" font-family="sans-serif" font-size="14" lengthAdjust="spacing" textLength="36" x="5" y="634.0645">Utenti</text><ellipse cx="26" cy="645.6406" fill="#E2E2F0" rx="8" ry="8" style="stroke:#181818;stroke-width:0.5;"/><path d="M26,653.6406 L26,680.6406 M13,661.6406 L39,661.6406 M26,680.6406 L13,695.6406 M26,680.6406 L39,695.6406 " fill="none" style="stroke:#181818;stroke-width:0.5;"/><rect fill="#E2E2F0" height="31.6094" rx="2.5" ry="2.5" style="stroke:#181818;stroke-width:0.5;" width="123" x="147.5" y="50"/><text fill="#000000" font-family="sans-serif" font-size="14" lengthAdjust="spacing" textLength="109" x="154.5" y="71.5332">Totem / Sito Web</text><rect fill="#E2E2F0" height="31.6094" rx="2.5" ry="2.5" style="stroke:#181818;stroke-width:0.5;" width="123" x="147.5" y="619.5313"/><text fill="#000000" font-family="sans-serif" font-size="14" lengthAdjust="spacing" textLength="109" x="154.5" y="641.0645">Totem / Sito Web</text><rect fill="#E2E2F0" height="49.2188" rx="2.5" ry="2.5" style="stroke:#181818;stroke-width:0.5;" width="137" x="280.5" y="32.3906"/><text fill="#000000" font-family="sans-serif" font-size="14" lengthAdjust="spacing" textLength="123" x="287.5" y="53.9238">Sistema Informativo</text><text fill="#000000" font-family="sans-serif" font-size="14" lengthAdjust="spacing" textLength="86" x="306" y="71.5332">con database</text><rect fill="#E2E2F0" height="49.2188" rx="2.5" ry="2.5" style="stroke:#181818;stroke-width:0.5;" width="137" x="280.5" y="619.5313"/><text fill="#000000" font-family="sans-serif" font-size="14" lengthAdjust="spacing" textLength="123" x="287.5" y="641.0645">Sistema Informativo</text><text fill="#000000" font-family="sans-serif" font-size="14" lengthAdjust="spacing" textLength="86" x="306" y="658.6738">con database</text><rect fill="#FFFFFF" height="36.3516" style="stroke:#181818;stroke-width:1.0;" width="10" x="344" y="381.4219"/><rect fill="#FFFFFF" height="30.3516" style="stroke:#181818;stroke-width:1.0;" width="10" x="344" y="535.8281"/><rect fill="#EEEEEE" height="3" style="stroke:#EEEEEE;stroke-width:1.0;" width="563" x="0" y="113.7852"/><line style="stroke:#000000;stroke-width:1.0;" x1="0" x2="563" y1="113.7852" y2="113.7852"/><line style="stroke:#000000;stroke-width:1.0;" x1="0" x2="563" y1="116.7852" y2="116.7852"/><rect fill="#EEEEEE" height="24.3516" style="stroke:#000000;stroke-width:2.0;" width="220" x="171.5" y="102.6094"/><text fill="#000000" font-family="sans-serif" font-size="13" font-weight="bold" lengthAdjust="spacing" textLength="202" x="177.5" y="120.1045">Accesso alla funzionalità Orario</text><polygon fill="#181818" points="197,155.3125,207,159.3125,197,163.3125,201,159.3125" style="stroke:#181818;stroke-width:1.0;"/><line style="stroke:#181818;stroke-width:1.0;" x1="26" x2="203" y1="159.3125" y2="159.3125"/><text fill="#000000" font-family="sans-serif" font-size="13" lengthAdjust="spacing" textLength="159" x="33" y="154.4561">Accesso tramite dispositivo</text><path d="M214,172.3125 L214,198.3125 L382,198.3125 L382,182.3125 L372,172.3125 L214,172.3125 " fill="#FEFFDD" style="stroke:#181818;stroke-width:0.5;"/><path d="M372,172.3125 L372,182.3125 L382,182.3125 L372,172.3125 " fill="#FEFFDD" style="stroke:#181818;stroke-width:0.5;"/><text fill="#000000" font-family="sans-serif" font-size="13" lengthAdjust="spacing" textLength="147" x="220" y="190.8076">Utenti accedono agli orari</text><rect fill="#EEEEEE" height="3" style="stroke:#EEEEEE;stroke-width:1.0;" width="563" x="0" y="224.8398"/><line style="stroke:#000000;stroke-width:1.0;" x1="0" x2="563" y1="224.8398" y2="224.8398"/><line style="stroke:#000000;stroke-width:1.0;" x1="0" x2="563" y1="227.8398" y2="227.8398"/><rect fill="#EEEEEE" height="24.3516" style="stroke:#000000;stroke-width:2.0;" width="185" x="189" y="213.6641"/><text fill="#000000" font-family="sans-serif" font-size="13" font-weight="bold" lengthAdjust="spacing" textLength="167" x="195" y="231.1592">Selezione Orari Professori</text><polygon fill="#181818" points="337,266.3672,347,270.3672,337,274.3672,341,270.3672" style="stroke:#181818;stroke-width:1.0;"/><line style="stroke:#181818;stroke-width:1.0;" x1="26" x2="343" y1="270.3672" y2="270.3672"/><text fill="#000000" font-family="sans-serif" font-size="13" lengthAdjust="spacing" textLength="181" x="33" y="265.5107">Seleziona opzione orari docenti</text><path d="M354,283.3672 L354,309.3672 L537,309.3672 L537,293.3672 L527,283.3672 L354,283.3672 " fill="#FEFFDD" style="stroke:#181818;stroke-width:0.5;"/><path d="M527,283.3672 L527,293.3672 L537,293.3672 L527,283.3672 " fill="#FEFFDD" style="stroke:#181818;stroke-width:0.5;"/><text fill="#000000" font-family="sans-serif" font-size="13" lengthAdjust="spacing" textLength="162" x="360" y="301.8623">Visualizzazione pagina orari</text><rect fill="#EEEEEE" height="3" style="stroke:#EEEEEE;stroke-width:1.0;" width="563" x="0" y="335.8945"/><line style="stroke:#000000;stroke-width:1.0;" x1="0" x2="563" y1="335.8945" y2="335.8945"/><line style="stroke:#000000;stroke-width:1.0;" x1="0" x2="563" y1="338.8945" y2="338.8945"/><rect fill="#EEEEEE" height="24.3516" style="stroke:#000000;stroke-width:2.0;" width="143" x="210" y="324.7188"/><text fill="#000000" font-family="sans-serif" font-size="13" font-weight="bold" lengthAdjust="spacing" textLength="125" x="216" y="342.2139">Ricerca e Filtraggio</text><polygon fill="#181818" points="332,377.4219,342,381.4219,332,385.4219,336,381.4219" style="stroke:#181818;stroke-width:1.0;"/><line style="stroke:#181818;stroke-width:1.0;" x1="26" x2="338" y1="381.4219" y2="381.4219"/><text fill="#000000" font-family="sans-serif" font-size="13" lengthAdjust="spacing" textLength="138" x="33" y="376.5654">Inserisce nome docente</text><line style="stroke:#181818;stroke-width:1.0;" x1="354" x2="396" y1="416.7734" y2="416.7734"/><line style="stroke:#181818;stroke-width:1.0;" x1="396" x2="396" y1="416.7734" y2="429.7734"/><line style="stroke:#181818;stroke-width:1.0;" x1="349" x2="396" y1="429.7734" y2="429.7734"/><polygon fill="#181818" points="359,425.7734,349,429.7734,359,433.7734,355,429.7734" style="stroke:#181818;stroke-width:1.0;"/><text fill="#000000" font-family="sans-serif" font-size="13" lengthAdjust="spacing" textLength="190" x="361" y="411.917">Filtra risultati per nome/cognome</text><path d="M354,437.7734 L354,463.7734 L543,463.7734 L543,447.7734 L533,437.7734 L354,437.7734 " fill="#FEFFDD" style="stroke:#181818;stroke-width:0.5;"/><path d="M533,437.7734 L533,447.7734 L543,447.7734 L533,437.7734 " fill="#FEFFDD" style="stroke:#181818;stroke-width:0.5;"/><text fill="#000000" font-family="sans-serif" font-size="13" lengthAdjust="spacing" textLength="168" x="360" y="456.2686">Lista docenti filtrata mostrata</text><rect fill="#EEEEEE" height="3" style="stroke:#EEEEEE;stroke-width:1.0;" width="563" x="0" y="490.3008"/><line style="stroke:#000000;stroke-width:1.0;" x1="0" x2="563" y1="490.3008" y2="490.3008"/><line style="stroke:#000000;stroke-width:1.0;" x1="0" x2="563" y1="493.3008" y2="493.3008"/><rect fill="#EEEEEE" height="24.3516" style="stroke:#000000;stroke-width:2.0;" width="287" x="138" y="479.125"/><text fill="#000000" font-family="sans-serif" font-size="13" font-weight="bold" lengthAdjust="spacing" textLength="269" x="144" y="496.6201">Selezione Docente e Visualizzazione Aula</text><polygon fill="#181818" points="332,531.8281,342,535.8281,332,539.8281,336,535.8281" style="stroke:#181818;stroke-width:1.0;"/><line style="stroke:#181818;stroke-width:1.0;" x1="26" x2="338" y1="535.8281" y2="535.8281"/><text fill="#000000" font-family="sans-serif" font-size="13" lengthAdjust="spacing" textLength="202" x="33" y="530.9717">Seleziona nome docente dalla lista</text><polygon fill="#181818" points="37,562.1797,27,566.1797,37,570.1797,33,566.1797" style="stroke:#181818;stroke-width:1.0;"/><line style="stroke:#181818;stroke-width:1.0;" x1="31" x2="348" y1="566.1797" y2="566.1797"/><text fill="#000000" font-family="sans-serif" font-size="13" lengthAdjust="spacing" textLength="151" x="43" y="561.3232">Fornisce informazioni aula</text><path d="M354,579.1797 L354,605.1797 L558,605.1797 L558,589.1797 L548,579.1797 L354,579.1797 " fill="#FEFFDD" style="stroke:#181818;stroke-width:0.5;"/><path d="M548,579.1797 L548,589.1797 L558,589.1797 L548,579.1797 " fill="#FEFFDD" style="stroke:#181818;stroke-width:0.5;"/><text fill="#000000" font-family="sans-serif" font-size="13" lengthAdjust="spacing" textLength="183" x="360" y="597.6748">Informazioni dettagliate sull'aula</text><!--MD5=[7872529a75ab5cccbef065015ffa825f]
@startuml SEQUENCE_ORARIO
actor Utenti
participant "Totem / Sito Web" as Totem
participant "Sistema Informativo\ncon database" as Sistema

== Accesso alla funzionalità Orario ==
Utenti -> Totem : Accesso tramite dispositivo
note right of Totem: Utenti accedono agli orari

== Selezione Orari Professori ==
Utenti -> Sistema : Seleziona opzione orari docenti
note right of Sistema: Visualizzazione pagina orari

== Ricerca e Filtraggio ==
Utenti -> Sistema : Inserisce nome docente
activate Sistema
Sistema -> Sistema : Filtra risultati per nome/cognome
deactivate Sistema
note right of Sistema: Lista docenti filtrata mostrata

== Selezione Docente e Visualizzazione Aula ==
Utenti -> Sistema : Seleziona nome docente dalla lista
activate Sistema
Sistema -> Utenti : Fornisce informazioni aula
deactivate Sistema
note right of Sistema: Informazioni dettagliate sull'aula

@enduml

PlantUML version 1.2022.7(Mon Aug 22 19:01:30 CEST 2022)
(GPL source distribution)
Java Runtime: Java(TM) SE Runtime Environment
JVM: Java HotSpot(TM) 64-Bit Server VM
Default Encoding: UTF-8
Language: en
Country: GB
--></g></svg>