<?xml version="1.0" encoding="UTF-8" standalone="no"?><svg xmlns="http://www.w3.org/2000/svg" xmlns:xlink="http://www.w3.org/1999/xlink" contentStyleType="text/css" height="852px" preserveAspectRatio="none" style="width:480px;height:852px;background:#FFFFFF;" version="1.1" viewBox="0 0 480 852" width="480px" zoomAndPan="magnify"><defs/><g><rect fill="#FFFFFF" height="36.3516" style="stroke:#181818;stroke-width:1.0;" width="10" x="311" y="159.3125"/><rect fill="#FFFFFF" height="30.3516" style="stroke:#181818;stroke-width:1.0;" width="10" x="311" y="330.0703"/><rect fill="#FFFFFF" height="30.3516" style="stroke:#181818;stroke-width:1.0;" width="10" x="311" y="390.7734"/><rect fill="#FFFFFF" height="30.3516" style="stroke:#181818;stroke-width:1.0;" width="10" x="311" y="495.8281"/><rect fill="#FFFFFF" height="30.3516" style="stroke:#181818;stroke-width:1.0;" width="10" x="311" y="556.5313"/><rect fill="#FFFFFF" height="30.3516" style="stroke:#181818;stroke-width:1.0;" width="10" x="311" y="661.5859"/><rect fill="#FFFFFF" height="30.3516" style="stroke:#181818;stroke-width:1.0;" width="10" x="311" y="722.2891"/><line style="stroke:#181818;stroke-width:0.5;stroke-dasharray:5.0,5.0;" x1="34" x2="34" y1="82.6094" y2="770.6406"/><line style="stroke:#181818;stroke-width:0.5;stroke-dasharray:5.0,5.0;" x1="108" x2="108" y1="82.6094" y2="770.6406"/><line style="stroke:#181818;stroke-width:0.5;stroke-dasharray:5.0,5.0;" x1="315.5" x2="315.5" y1="82.6094" y2="770.6406"/><text fill="#000000" font-family="sans-serif" font-size="14" lengthAdjust="spacing" textLength="52" x="5" y="79.5332">Studenti</text><ellipse cx="34" cy="13.5" fill="#E2E2F0" rx="8" ry="8" style="stroke:#181818;stroke-width:0.5;"/><path d="M34,21.5 L34,48.5 M21,29.5 L47,29.5 M34,48.5 L21,63.5 M34,48.5 L47,63.5 " fill="none" style="stroke:#181818;stroke-width:0.5;"/><text fill="#000000" font-family="sans-serif" font-size="14" lengthAdjust="spacing" textLength="52" x="5" y="784.1738">Studenti</text><ellipse cx="34" cy="795.75" fill="#E2E2F0" rx="8" ry="8" style="stroke:#181818;stroke-width:0.5;"/><path d="M34,803.75 L34,830.75 M21,811.75 L47,811.75 M34,830.75 L21,845.75 M34,830.75 L47,845.75 " fill="none" style="stroke:#181818;stroke-width:0.5;"/><text fill="#000000" font-family="sans-serif" font-size="14" lengthAdjust="spacing" textLength="64" x="73" y="79.5332">Professori</text><ellipse cx="108" cy="13.5" fill="#E2E2F0" rx="8" ry="8" style="stroke:#181818;stroke-width:0.5;"/><path d="M108,21.5 L108,48.5 M95,29.5 L121,29.5 M108,48.5 L95,63.5 M108,48.5 L121,63.5 " fill="none" style="stroke:#181818;stroke-width:0.5;"/><text fill="#000000" font-family="sans-serif" font-size="14" lengthAdjust="spacing" textLength="64" x="73" y="784.1738">Professori</text><ellipse cx="108" cy="795.75" fill="#E2E2F0" rx="8" ry="8" style="stroke:#181818;stroke-width:0.5;"/><path d="M108,803.75 L108,830.75 M95,811.75 L121,811.75 M108,830.75 L95,845.75 M108,830.75 L121,845.75 " fill="none" style="stroke:#181818;stroke-width:0.5;"/><rect fill="#E2E2F0" height="49.2188" rx="2.5" ry="2.5" style="stroke:#181818;stroke-width:0.5;" width="137" x="247.5" y="32.3906"/><text fill="#000000" font-family="sans-serif" font-size="14" lengthAdjust="spacing" textLength="123" x="254.5" y="53.9238">Sistema Informativo</text><text fill="#000000" font-family="sans-serif" font-size="14" lengthAdjust="spacing" textLength="86" x="273" y="71.5332">con database</text><rect fill="#E2E2F0" height="49.2188" rx="2.5" ry="2.5" style="stroke:#181818;stroke-width:0.5;" width="137" x="247.5" y="769.6406"/><text fill="#000000" font-family="sans-serif" font-size="14" lengthAdjust="spacing" textLength="123" x="254.5" y="791.1738">Sistema Informativo</text><text fill="#000000" font-family="sans-serif" font-size="14" lengthAdjust="spacing" textLength="86" x="273" y="808.7832">con database</text><rect fill="#FFFFFF" height="36.3516" style="stroke:#181818;stroke-width:1.0;" width="10" x="311" y="159.3125"/><rect fill="#FFFFFF" height="30.3516" style="stroke:#181818;stroke-width:1.0;" width="10" x="311" y="330.0703"/><rect fill="#FFFFFF" height="30.3516" style="stroke:#181818;stroke-width:1.0;" width="10" x="311" y="390.7734"/><rect fill="#FFFFFF" height="30.3516" style="stroke:#181818;stroke-width:1.0;" width="10" x="311" y="495.8281"/><rect fill="#FFFFFF" height="30.3516" style="stroke:#181818;stroke-width:1.0;" width="10" x="311" y="556.5313"/><rect fill="#FFFFFF" height="30.3516" style="stroke:#181818;stroke-width:1.0;" width="10" x="311" y="661.5859"/><rect fill="#FFFFFF" height="30.3516" style="stroke:#181818;stroke-width:1.0;" width="10" x="311" y="722.2891"/><rect fill="#EEEEEE" height="3" style="stroke:#EEEEEE;stroke-width:1.0;" width="473" x="0" y="113.7852"/><line style="stroke:#000000;stroke-width:1.0;" x1="0" x2="473" y1="113.7852" y2="113.7852"/><line style="stroke:#000000;stroke-width:1.0;" x1="0" x2="473" y1="116.7852" y2="116.7852"/><rect fill="#EEEEEE" height="24.3516" style="stroke:#000000;stroke-width:2.0;" width="187" x="143" y="102.6094"/><text fill="#000000" font-family="sans-serif" font-size="13" font-weight="bold" lengthAdjust="spacing" textLength="169" x="149" y="120.1045">Accesso al sito informativo</text><polygon fill="#181818" points="299,155.3125,309,159.3125,299,163.3125,303,159.3125" style="stroke:#181818;stroke-width:1.0;"/><line style="stroke:#181818;stroke-width:1.0;" x1="108" x2="305" y1="159.3125" y2="159.3125"/><text fill="#000000" font-family="sans-serif" font-size="13" lengthAdjust="spacing" textLength="177" x="115" y="154.4561">Autenticazione con credenziali</text><line style="stroke:#181818;stroke-width:1.0;" x1="321" x2="363" y1="194.6641" y2="194.6641"/><line style="stroke:#181818;stroke-width:1.0;" x1="363" x2="363" y1="194.6641" y2="207.6641"/><line style="stroke:#181818;stroke-width:1.0;" x1="316" x2="363" y1="207.6641" y2="207.6641"/><polygon fill="#181818" points="326,203.6641,316,207.6641,326,211.6641,322,207.6641" style="stroke:#181818;stroke-width:1.0;"/><text fill="#000000" font-family="sans-serif" font-size="13" lengthAdjust="spacing" textLength="109" x="328" y="189.8076">Verifica credenziali</text><path d="M321,215.6641 L321,257.6641 L468,257.6641 L468,225.6641 L458,215.6641 L321,215.6641 " fill="#FEFFDD" style="stroke:#181818;stroke-width:0.5;"/><path d="M458,215.6641 L458,225.6641 L468,225.6641 L458,215.6641 " fill="#FEFFDD" style="stroke:#181818;stroke-width:0.5;"/><text fill="#000000" font-family="sans-serif" font-size="13" lengthAdjust="spacing" textLength="126" x="327" y="234.1592">Gli studenti accedono</text><text fill="#000000" font-family="sans-serif" font-size="13" lengthAdjust="spacing" textLength="123" x="327" y="250.5107">senza autenticazione</text><rect fill="#EEEEEE" height="3" style="stroke:#EEEEEE;stroke-width:1.0;" width="473" x="0" y="284.543"/><line style="stroke:#000000;stroke-width:1.0;" x1="0" x2="473" y1="284.543" y2="284.543"/><line style="stroke:#000000;stroke-width:1.0;" x1="0" x2="473" y1="287.543" y2="287.543"/><rect fill="#EEEEEE" height="24.3516" style="stroke:#000000;stroke-width:2.0;" width="174" x="149.5" y="273.3672"/><text fill="#000000" font-family="sans-serif" font-size="13" font-weight="bold" lengthAdjust="spacing" textLength="156" x="155.5" y="290.8623">Navigazione modulistica</text><polygon fill="#181818" points="299,326.0703,309,330.0703,299,334.0703,303,330.0703" style="stroke:#181818;stroke-width:1.0;"/><line style="stroke:#181818;stroke-width:1.0;" x1="108" x2="305" y1="330.0703" y2="330.0703"/><text fill="#000000" font-family="sans-serif" font-size="13" lengthAdjust="spacing" textLength="184" x="115" y="325.2139">Richiesta modulistica professori</text><polygon fill="#181818" points="119,356.4219,109,360.4219,119,364.4219,115,360.4219" style="stroke:#181818;stroke-width:1.0;"/><line style="stroke:#181818;stroke-width:1.0;" x1="113" x2="315" y1="360.4219" y2="360.4219"/><text fill="#000000" font-family="sans-serif" font-size="13" lengthAdjust="spacing" textLength="170" x="125" y="355.5654">Mostra modulistica professori</text><polygon fill="#181818" points="299,386.7734,309,390.7734,299,394.7734,303,390.7734" style="stroke:#181818;stroke-width:1.0;"/><line style="stroke:#181818;stroke-width:1.0;" x1="34" x2="305" y1="390.7734" y2="390.7734"/><text fill="#000000" font-family="sans-serif" font-size="13" lengthAdjust="spacing" textLength="171" x="41" y="385.917">Accesso modulistica studenti</text><polygon fill="#181818" points="45,417.125,35,421.125,45,425.125,41,421.125" style="stroke:#181818;stroke-width:1.0;"/><line style="stroke:#181818;stroke-width:1.0;" x1="39" x2="315" y1="421.125" y2="421.125"/><text fill="#000000" font-family="sans-serif" font-size="13" lengthAdjust="spacing" textLength="160" x="51" y="416.2686">Mostra modulistica studenti</text><rect fill="#EEEEEE" height="3" style="stroke:#EEEEEE;stroke-width:1.0;" width="473" x="0" y="450.3008"/><line style="stroke:#000000;stroke-width:1.0;" x1="0" x2="473" y1="450.3008" y2="450.3008"/><line style="stroke:#000000;stroke-width:1.0;" x1="0" x2="473" y1="453.3008" y2="453.3008"/><rect fill="#EEEEEE" height="24.3516" style="stroke:#000000;stroke-width:2.0;" width="265" x="104" y="439.125"/><text fill="#000000" font-family="sans-serif" font-size="13" font-weight="bold" lengthAdjust="spacing" textLength="247" x="110" y="456.6201">Utilizzo strumenti di ricerca e filtraggio</text><polygon fill="#181818" points="299,491.8281,309,495.8281,299,499.8281,303,495.8281" style="stroke:#181818;stroke-width:1.0;"/><line style="stroke:#181818;stroke-width:1.0;" x1="34" x2="305" y1="495.8281" y2="495.8281"/><text fill="#000000" font-family="sans-serif" font-size="13" lengthAdjust="spacing" textLength="125" x="41" y="490.9717">Ricerca e filtro moduli</text><polygon fill="#181818" points="45,522.1797,35,526.1797,45,530.1797,41,526.1797" style="stroke:#181818;stroke-width:1.0;"/><line style="stroke:#181818;stroke-width:1.0;" x1="39" x2="315" y1="526.1797" y2="526.1797"/><text fill="#000000" font-family="sans-serif" font-size="13" lengthAdjust="spacing" textLength="129" x="51" y="521.3232">Mostra risultati ricerca</text><polygon fill="#181818" points="299,552.5313,309,556.5313,299,560.5313,303,556.5313" style="stroke:#181818;stroke-width:1.0;"/><line style="stroke:#181818;stroke-width:1.0;" x1="108" x2="305" y1="556.5313" y2="556.5313"/><text fill="#000000" font-family="sans-serif" font-size="13" lengthAdjust="spacing" textLength="125" x="115" y="551.6748">Ricerca e filtro moduli</text><polygon fill="#181818" points="119,582.8828,109,586.8828,119,590.8828,115,586.8828" style="stroke:#181818;stroke-width:1.0;"/><line style="stroke:#181818;stroke-width:1.0;" x1="113" x2="315" y1="586.8828" y2="586.8828"/><text fill="#000000" font-family="sans-serif" font-size="13" lengthAdjust="spacing" textLength="129" x="125" y="582.0264">Mostra risultati ricerca</text><rect fill="#EEEEEE" height="3" style="stroke:#EEEEEE;stroke-width:1.0;" width="473" x="0" y="616.0586"/><line style="stroke:#000000;stroke-width:1.0;" x1="0" x2="473" y1="616.0586" y2="616.0586"/><line style="stroke:#000000;stroke-width:1.0;" x1="0" x2="473" y1="619.0586" y2="619.0586"/><rect fill="#EEEEEE" height="24.3516" style="stroke:#000000;stroke-width:2.0;" width="222" x="125.5" y="604.8828"/><text fill="#000000" font-family="sans-serif" font-size="13" font-weight="bold" lengthAdjust="spacing" textLength="204" x="131.5" y="622.3779">Visualizzazione dettagli modulo</text><polygon fill="#181818" points="299,657.5859,309,661.5859,299,665.5859,303,661.5859" style="stroke:#181818;stroke-width:1.0;"/><line style="stroke:#181818;stroke-width:1.0;" x1="34" x2="305" y1="661.5859" y2="661.5859"/><text fill="#000000" font-family="sans-serif" font-size="13" lengthAdjust="spacing" textLength="103" x="41" y="656.7295">Seleziona modulo</text><polygon fill="#181818" points="45,687.9375,35,691.9375,45,695.9375,41,691.9375" style="stroke:#181818;stroke-width:1.0;"/><line style="stroke:#181818;stroke-width:1.0;" x1="39" x2="315" y1="691.9375" y2="691.9375"/><text fill="#000000" font-family="sans-serif" font-size="13" lengthAdjust="spacing" textLength="132" x="51" y="687.0811">Mostra dettagli modulo</text><polygon fill="#181818" points="299,718.2891,309,722.2891,299,726.2891,303,722.2891" style="stroke:#181818;stroke-width:1.0;"/><line style="stroke:#181818;stroke-width:1.0;" x1="108" x2="305" y1="722.2891" y2="722.2891"/><text fill="#000000" font-family="sans-serif" font-size="13" lengthAdjust="spacing" textLength="103" x="115" y="717.4326">Seleziona modulo</text><polygon fill="#181818" points="119,748.6406,109,752.6406,119,756.6406,115,752.6406" style="stroke:#181818;stroke-width:1.0;"/><line style="stroke:#181818;stroke-width:1.0;" x1="113" x2="315" y1="752.6406" y2="752.6406"/><text fill="#000000" font-family="sans-serif" font-size="13" lengthAdjust="spacing" textLength="132" x="125" y="747.7842">Mostra dettagli modulo</text><!--MD5=[666b5c254e39d97dcc8dc63a7096fbee]
@startuml SEQUENCE_MODULISTICA
actor Studenti
actor Professori
participant "Sistema Informativo\ncon database" as Sistema

== Accesso al sito informativo ==
Professori -> Sistema : Autenticazione con credenziali
activate Sistema
Sistema -> Sistema : Verifica credenziali
deactivate Sistema
note right of Sistema: Gli studenti accedono\nsenza autenticazione

== Navigazione modulistica ==
Professori -> Sistema : Richiesta modulistica professori
activate Sistema
Sistema -> Professori : Mostra modulistica professori
deactivate Sistema

Studenti -> Sistema : Accesso modulistica studenti
activate Sistema
Sistema -> Studenti : Mostra modulistica studenti
deactivate Sistema

== Utilizzo strumenti di ricerca e filtraggio ==
Studenti -> Sistema : Ricerca e filtro moduli
activate Sistema
Sistema -> Studenti : Mostra risultati ricerca
deactivate Sistema

Professori -> Sistema : Ricerca e filtro moduli
activate Sistema
Sistema -> Professori : Mostra risultati ricerca
deactivate Sistema

== Visualizzazione dettagli modulo ==
Studenti -> Sistema : Seleziona modulo
activate Sistema
Sistema -> Studenti : Mostra dettagli modulo
deactivate Sistema

Professori -> Sistema : Seleziona modulo
activate Sistema
Sistema -> Professori : Mostra dettagli modulo
deactivate Sistema

@enduml

PlantUML version 1.2022.7(Mon Aug 22 19:01:30 CEST 2022)
(GPL source distribution)
Java Runtime: Java(TM) SE Runtime Environment
JVM: Java HotSpot(TM) 64-Bit Server VM
Default Encoding: UTF-8
Language: en
Country: GB
--></g></svg>