<?xml version="1.0" encoding="UTF-8" standalone="no"?><svg xmlns="http://www.w3.org/2000/svg" xmlns:xlink="http://www.w3.org/1999/xlink" contentStyleType="text/css" height="615px" preserveAspectRatio="none" style="width:747px;height:615px;background:#FFFFFF;" version="1.1" viewBox="0 0 747 615" width="747px" zoomAndPan="magnify"><defs/><g><rect fill="#FFFFFF" height="73.7031" style="stroke:#181818;stroke-width:1.0;" width="10" x="245.5" y="270.3672"/><rect fill="#FFFFFF" height="365.5156" style="stroke:#181818;stroke-width:1.0;" width="10" x="476.5" y="159.3125"/><rect fill="#FFFFFF" height="60.7031" style="stroke:#181818;stroke-width:1.0;" width="10" x="706.5" y="455.125"/><line style="stroke:#181818;stroke-width:0.5;stroke-dasharray:5.0,5.0;" x1="88" x2="88" y1="82.6094" y2="533.8281"/><line style="stroke:#181818;stroke-width:0.5;stroke-dasharray:5.0,5.0;" x1="250" x2="250" y1="82.6094" y2="533.8281"/><line style="stroke:#181818;stroke-width:0.5;stroke-dasharray:5.0,5.0;" x1="481" x2="481" y1="82.6094" y2="533.8281"/><line style="stroke:#181818;stroke-width:0.5;stroke-dasharray:5.0,5.0;" x1="711" x2="711" y1="82.6094" y2="533.8281"/><text fill="#000000" font-family="sans-serif" font-size="14" lengthAdjust="spacing" textLength="161" x="5" y="79.5332">Amministratore di sistema</text><ellipse cx="88.5" cy="13.5" fill="#E2E2F0" rx="8" ry="8" style="stroke:#181818;stroke-width:0.5;"/><path d="M88.5,21.5 L88.5,48.5 M75.5,29.5 L101.5,29.5 M88.5,48.5 L75.5,63.5 M88.5,48.5 L101.5,63.5 " fill="none" style="stroke:#181818;stroke-width:0.5;"/><text fill="#000000" font-family="sans-serif" font-size="14" lengthAdjust="spacing" textLength="161" x="5" y="547.3613">Amministratore di sistema</text><ellipse cx="88.5" cy="558.9375" fill="#E2E2F0" rx="8" ry="8" style="stroke:#181818;stroke-width:0.5;"/><path d="M88.5,566.9375 L88.5,593.9375 M75.5,574.9375 L101.5,574.9375 M88.5,593.9375 L75.5,608.9375 M88.5,593.9375 L101.5,608.9375 " fill="none" style="stroke:#181818;stroke-width:0.5;"/><text fill="#000000" font-family="sans-serif" font-size="14" lengthAdjust="spacing" textLength="131" x="182" y="79.5332">Intelligenza Artificiale</text><ellipse cx="250.5" cy="13.5" fill="#E2E2F0" rx="8" ry="8" style="stroke:#181818;stroke-width:0.5;"/><path d="M250.5,21.5 L250.5,48.5 M237.5,29.5 L263.5,29.5 M250.5,48.5 L237.5,63.5 M250.5,48.5 L263.5,63.5 " fill="none" style="stroke:#181818;stroke-width:0.5;"/><text fill="#000000" font-family="sans-serif" font-size="14" lengthAdjust="spacing" textLength="131" x="182" y="547.3613">Intelligenza Artificiale</text><ellipse cx="250.5" cy="558.9375" fill="#E2E2F0" rx="8" ry="8" style="stroke:#181818;stroke-width:0.5;"/><path d="M250.5,566.9375 L250.5,593.9375 M237.5,574.9375 L263.5,574.9375 M250.5,593.9375 L237.5,608.9375 M250.5,593.9375 L263.5,608.9375 " fill="none" style="stroke:#181818;stroke-width:0.5;"/><rect fill="#E2E2F0" height="49.2188" rx="2.5" ry="2.5" style="stroke:#181818;stroke-width:0.5;" width="137" x="413" y="32.3906"/><text fill="#000000" font-family="sans-serif" font-size="14" lengthAdjust="spacing" textLength="123" x="420" y="53.9238">Sistema Informativo</text><text fill="#000000" font-family="sans-serif" font-size="14" lengthAdjust="spacing" textLength="86" x="438.5" y="71.5332">con database</text><rect fill="#E2E2F0" height="49.2188" rx="2.5" ry="2.5" style="stroke:#181818;stroke-width:0.5;" width="137" x="413" y="532.8281"/><text fill="#000000" font-family="sans-serif" font-size="14" lengthAdjust="spacing" textLength="123" x="420" y="554.3613">Sistema Informativo</text><text fill="#000000" font-family="sans-serif" font-size="14" lengthAdjust="spacing" textLength="86" x="438.5" y="571.9707">con database</text><text fill="#000000" font-family="sans-serif" font-size="14" lengthAdjust="spacing" textLength="41" x="688" y="79.5332">Utente</text><ellipse cx="711.5" cy="13.5" fill="#E2E2F0" rx="8" ry="8" style="stroke:#181818;stroke-width:0.5;"/><path d="M711.5,21.5 L711.5,48.5 M698.5,29.5 L724.5,29.5 M711.5,48.5 L698.5,63.5 M711.5,48.5 L724.5,63.5 " fill="none" style="stroke:#181818;stroke-width:0.5;"/><text fill="#000000" font-family="sans-serif" font-size="14" lengthAdjust="spacing" textLength="41" x="688" y="547.3613">Utente</text><ellipse cx="711.5" cy="558.9375" fill="#E2E2F0" rx="8" ry="8" style="stroke:#181818;stroke-width:0.5;"/><path d="M711.5,566.9375 L711.5,593.9375 M698.5,574.9375 L724.5,574.9375 M711.5,593.9375 L698.5,608.9375 M711.5,593.9375 L724.5,608.9375 " fill="none" style="stroke:#181818;stroke-width:0.5;"/><rect fill="#FFFFFF" height="73.7031" style="stroke:#181818;stroke-width:1.0;" width="10" x="245.5" y="270.3672"/><rect fill="#FFFFFF" height="365.5156" style="stroke:#181818;stroke-width:1.0;" width="10" x="476.5" y="159.3125"/><rect fill="#FFFFFF" height="60.7031" style="stroke:#181818;stroke-width:1.0;" width="10" x="706.5" y="455.125"/><rect fill="#EEEEEE" height="3" style="stroke:#EEEEEE;stroke-width:1.0;" width="740" x="0" y="113.7852"/><line style="stroke:#000000;stroke-width:1.0;" x1="0" x2="740" y1="113.7852" y2="113.7852"/><line style="stroke:#000000;stroke-width:1.0;" x1="0" x2="740" y1="116.7852" y2="116.7852"/><rect fill="#EEEEEE" height="24.3516" style="stroke:#000000;stroke-width:2.0;" width="171" x="284.5" y="102.6094"/><text fill="#000000" font-family="sans-serif" font-size="13" font-weight="bold" lengthAdjust="spacing" textLength="153" x="290.5" y="120.1045">Pubblicazione Circolare</text><polygon fill="#181818" points="464.5,155.3125,474.5,159.3125,464.5,163.3125,468.5,159.3125" style="stroke:#181818;stroke-width:1.0;"/><line style="stroke:#181818;stroke-width:1.0;" x1="88.5" x2="470.5" y1="159.3125" y2="159.3125"/><text fill="#000000" font-family="sans-serif" font-size="13" lengthAdjust="spacing" textLength="90" x="95.5" y="154.4561">Carica circolare</text><path d="M491,172.3125 L491,198.3125 L672,198.3125 L672,182.3125 L662,172.3125 L491,172.3125 " fill="#FEFFDD" style="stroke:#181818;stroke-width:0.5;"/><path d="M662,172.3125 L662,182.3125 L672,182.3125 L662,172.3125 " fill="#FEFFDD" style="stroke:#181818;stroke-width:0.5;"/><text fill="#000000" font-family="sans-serif" font-size="13" lengthAdjust="spacing" textLength="160" x="497" y="190.8076">Circolare pubblicata sul sito</text><rect fill="#EEEEEE" height="3" style="stroke:#EEEEEE;stroke-width:1.0;" width="740" x="0" y="224.8398"/><line style="stroke:#000000;stroke-width:1.0;" x1="0" x2="740" y1="224.8398" y2="224.8398"/><line style="stroke:#000000;stroke-width:1.0;" x1="0" x2="740" y1="227.8398" y2="227.8398"/><rect fill="#EEEEEE" height="24.3516" style="stroke:#000000;stroke-width:2.0;" width="191" x="274.5" y="213.6641"/><text fill="#000000" font-family="sans-serif" font-size="13" font-weight="bold" lengthAdjust="spacing" textLength="173" x="280.5" y="231.1592">Categorizzazione Circolare</text><polygon fill="#181818" points="266.5,266.3672,256.5,270.3672,266.5,274.3672,262.5,270.3672" style="stroke:#181818;stroke-width:1.0;"/><line style="stroke:#181818;stroke-width:1.0;" x1="260.5" x2="475.5" y1="270.3672" y2="270.3672"/><text fill="#000000" font-family="sans-serif" font-size="13" lengthAdjust="spacing" textLength="202" x="272.5" y="265.5107">Sottopone circolare a IA per analisi</text><line style="stroke:#181818;stroke-width:1.0;" x1="255.5" x2="297.5" y1="300.7188" y2="300.7188"/><line style="stroke:#181818;stroke-width:1.0;" x1="297.5" x2="297.5" y1="300.7188" y2="313.7188"/><line style="stroke:#181818;stroke-width:1.0;" x1="256.5" x2="297.5" y1="313.7188" y2="313.7188"/><polygon fill="#181818" points="266.5,309.7188,256.5,313.7188,266.5,317.7188,262.5,313.7188" style="stroke:#181818;stroke-width:1.0;"/><text fill="#000000" font-family="sans-serif" font-size="13" lengthAdjust="spacing" textLength="103" x="262.5" y="295.8623">Analizza circolare</text><polygon fill="#181818" points="464.5,340.0703,474.5,344.0703,464.5,348.0703,468.5,344.0703" style="stroke:#181818;stroke-width:1.0;"/><line style="stroke:#181818;stroke-width:1.0;" x1="250.5" x2="470.5" y1="344.0703" y2="344.0703"/><text fill="#000000" font-family="sans-serif" font-size="13" lengthAdjust="spacing" textLength="187" x="257.5" y="339.2139">Etichetta circolare con categorie</text><path d="M491,357.0703 L491,383.0703 L645,383.0703 L645,367.0703 L635,357.0703 L491,357.0703 " fill="#FEFFDD" style="stroke:#181818;stroke-width:0.5;"/><path d="M635,357.0703 L635,367.0703 L645,367.0703 L635,357.0703 " fill="#FEFFDD" style="stroke:#181818;stroke-width:0.5;"/><text fill="#000000" font-family="sans-serif" font-size="13" lengthAdjust="spacing" textLength="133" x="497" y="375.5654">Circolare categorizzata</text><rect fill="#EEEEEE" height="3" style="stroke:#EEEEEE;stroke-width:1.0;" width="740" x="0" y="409.5977"/><line style="stroke:#000000;stroke-width:1.0;" x1="0" x2="740" y1="409.5977" y2="409.5977"/><line style="stroke:#000000;stroke-width:1.0;" x1="0" x2="740" y1="412.5977" y2="412.5977"/><rect fill="#EEEEEE" height="24.3516" style="stroke:#000000;stroke-width:2.0;" width="180" x="280" y="398.4219"/><text fill="#000000" font-family="sans-serif" font-size="13" font-weight="bold" lengthAdjust="spacing" textLength="162" x="286" y="415.917">Visualizzazione Circolare</text><polygon fill="#181818" points="694.5,451.125,704.5,455.125,694.5,459.125,698.5,455.125" style="stroke:#181818;stroke-width:1.0;"/><line style="stroke:#181818;stroke-width:1.0;" x1="486.5" x2="700.5" y1="455.125" y2="455.125"/><text fill="#000000" font-family="sans-serif" font-size="13" lengthAdjust="spacing" textLength="201" x="493.5" y="450.2686">Mostra circolare su sito, totem, TV</text><polygon fill="#181818" points="497.5,481.4766,487.5,485.4766,497.5,489.4766,493.5,485.4766" style="stroke:#181818;stroke-width:1.0;"/><line style="stroke:#181818;stroke-width:1.0;" x1="491.5" x2="705.5" y1="485.4766" y2="485.4766"/><text fill="#000000" font-family="sans-serif" font-size="13" lengthAdjust="spacing" textLength="176" x="503.5" y="480.6201">Ricerca circolare per categoria</text><polygon fill="#181818" points="699.5,511.8281,709.5,515.8281,699.5,519.8281,703.5,515.8281" style="stroke:#181818;stroke-width:1.0;"/><line style="stroke:#181818;stroke-width:1.0;" x1="486.5" x2="705.5" y1="515.8281" y2="515.8281"/><text fill="#000000" font-family="sans-serif" font-size="13" lengthAdjust="spacing" textLength="173" x="493.5" y="510.9717">Filtra e mostra risultati ricerca</text><!--MD5=[7ccb492b8796fd698278885c5c7d677e]
@startuml SEQUENCE_CIRCOLARI
actor "Amministratore di sistema" as Admin
actor "Intelligenza Artificiale" as AI
participant "Sistema Informativo\ncon database" as Sistema
actor Utente

== Pubblicazione Circolare ==
Admin -> Sistema : Carica circolare
activate Sistema
note right of Sistema: Circolare pubblicata sul sito

== Categorizzazione Circolare ==
Sistema -> AI : Sottopone circolare a IA per analisi
activate AI
AI -> AI : Analizza circolare
AI -> Sistema : Etichetta circolare con categorie
deactivate AI
note right of Sistema: Circolare categorizzata

== Visualizzazione Circolare ==
Sistema -> Utente : Mostra circolare su sito, totem, TV
activate Utente
Utente -> Sistema : Ricerca circolare per categoria
Sistema -> Utente : Filtra e mostra risultati ricerca
deactivate Utente

@enduml

PlantUML version 1.2022.7(Mon Aug 22 19:01:30 CEST 2022)
(GPL source distribution)
Java Runtime: Java(TM) SE Runtime Environment
JVM: Java HotSpot(TM) 64-Bit Server VM
Default Encoding: UTF-8
Language: en
Country: GB
--></g></svg>